# xmcd CD database file
#
# Track frame offsets:
#	150
#	22002
#	42862
#	63952
#	84355
#	110140
#	132945
#	155895
#	175435
#	198160
#	220087
#
# Disc length: 3204 seconds
#
# Revision: 2
# Processed by: cddbd v1.5.2PL0 Copyright (c) Steve Scherf et al.
# Submitted via: CDex 1.70beta3
#
DISCID=9a0c820b
DTITLE=中森明菜 - SPOON
DYEAR=1998
DGENRE=Pop
TTITLE0=ユア バースデイ
TTITLE1=雨の日は人魚
TTITLE2=楽園の女神
TTITLE3=今夜、流れ星
TTITLE4=帰省
TTITLE5=祝福
TTITLE6=雪の花
TTITLE7=嵐の中で
TTITLE8=幻惑
TTITLE9=BLOWING FROM THE SUN
TTITLE10=花曇り
EXTD=YEAR: 1998
EXTT0=
EXTT1=
EXTT2=
EXTT3=
EXTT4=
EXTT5=
EXTT6=
EXTT7=
EXTT8=
EXTT9=
EXTT10=
PLAYORDER=
